<svg xmlns="http://www.w3.org/2000/svg" width="128" height="128" viewBox="0 0 128 128" id="bloody"><path fill="#d5e3ef" d="M102.35,28.85,84.43,10.93C76.69,21.21,68.51,31,60.6,39.7l-.27.3C51,50.31,42,59.19,34,66.54l.23.25L66.75,99.32c35.36-15.56,53-53,53-53ZM87,22.5c2.46,2.46-1.26,6.2-3.73,3.73S84.53,20,87,22.5Z"></path><path fill="#809a9b" d="M42.45,75l-5.88,5.34c-8.81,7.82-15.89,13.41-20.08,16.58a5.95,5.95,0,0,1-7.22-9.45C14.56,83.43,23.34,76.36,34,66.54,34.36,66.94,42.07,74.64,42.45,75Z"></path><path fill="#607d80" d="M23,76.31c-5.69,4.88-10.4,8.62-13.73,11.18a6,6,0,0,0-.56,8.94h0l10.83-8.77A9.33,9.33,0,0,0,23,80.41Z"></path><path fill="#b0c4d8" d="M102.35 28.85L84.43 10.93C76.47 21.49 69 30.42 60.6 39.7l-.27.3h37.4A6.53 6.53 0 0 0 102.35 28.85zM83.27 26.23C80.81 23.77 84.53 20 87 22.5S85.74 28.7 83.27 26.23zM103 47.5h0a2.5 2.5 0 0 1-2.5 2.5H51c1.65-1.62 3.31-3.27 5-5H100.5A2.5 2.5 0 0 1 103 47.5z"></path><path fill="#fff" d="M113.78,40.28s-17.67,37.48-53,53l6,6c35.36-15.56,53-53,53-53Z"></path><path fill="#fff" d="M113.78,40.28s-17.67,37.48-53,53l6,6c35.36-15.56,53-53,53-53Z"></path><path fill="#ef4b4b" d="M55.5,88.07S58,83,63,81s10,1,14-2,14.35-8.77,21.68-2.89C98.68,76.11,84,92,67,99Z"></path><path fill="#e03f3f" d="M89.13 73.72A101.46 101.46 0 0 1 68.19 89.59 5.89 5.89 0 0 0 67 99h0c14.27-5.88 26.9-18 30.59-21.75l1.09-1.13A12.18 12.18 0 0 0 89.13 73.72zM72 118h0a6 6 0 0 0 6-6c0-6-6-14-6-14s-6 8-6 14A6 6 0 0 0 72 118z"></path><path fill="#31352e" d="M121.9,44.16C83.65,5.91,86.16,7.8,84.22,7.94A3,3,0,0,0,82,9.13a410.36,410.36,0,0,1-74.58,76A8.95,8.95,0,0,0,18.3,99.33C22.69,96,29.77,90.4,38.56,82.61c3-2.63-1-7.12-4-4.49C25.94,85.78,19,91.29,14.68,94.55,11.57,96.9,8,92.22,11.1,89.87c5-3.81,13-10.27,22.78-19.17l30.74,30.74c1.76,1.76,3.64.51,5.76-.51C72.12,103.51,75,108.53,75,112c0,4-6,4-6,0a12.06,12.06,0,0,1,.88-4c1.38-3.71-4.24-5.82-5.62-2.09C60.37,116.32,66.88,121,72,121c5.72,0,14.72-6.07,3.75-22.86C106.5,80.85,121.81,49,122.5,47.56A3,3,0,0,0,121.9,44.16ZM67.4,95.72,38.3,66.62A423.22,423.22,0,0,0,84.74,15.48l31.38,31.38C112.13,54.33,95.71,82.39,67.4,95.72Z"></path></svg>